<svg width="20" height="20" viewBox="0 0 20 20" fill="none" xmlns="http://www.w3.org/2000/svg">
<path d="M17.5001 19.75H17.3726C2.63506 18.9025 0.542564 6.4675 0.250064 2.6725C0.226495 2.37744 0.26138 2.08062 0.35272 1.79906C0.444059 1.5175 0.590058 1.25673 0.782352 1.03169C0.974645 0.80665 1.20945 0.621766 1.47332 0.48763C1.73719 0.353493 2.02493 0.272741 2.32006 0.250001H6.45256C6.75298 0.24971 7.04657 0.339633 7.29529 0.508122C7.54401 0.676611 7.73641 0.915903 7.84756 1.195L8.98756 4C9.09733 4.27266 9.12457 4.57156 9.0659 4.85957C9.00723 5.14758 8.86524 5.412 8.65756 5.62L7.06006 7.2325C7.3096 8.65056 7.9887 9.95775 9.00549 10.9772C10.0223 11.9967 11.3277 12.6792 12.7451 12.9325L14.3726 11.32C14.5837 11.1146 14.8506 10.9759 15.14 10.9213C15.4294 10.8666 15.7286 10.8983 16.0001 11.0125L18.8276 12.145C19.1025 12.2597 19.337 12.4536 19.5013 12.702C19.6656 12.9504 19.7522 13.2422 19.7501 13.54V17.5C19.7501 18.0967 19.513 18.669 19.0911 19.091C18.6691 19.5129 18.0968 19.75 17.5001 19.75ZM2.50006 1.75C2.30115 1.75 2.11039 1.82902 1.96973 1.96967C1.82908 2.11032 1.75006 2.30109 1.75006 2.5V2.56C2.09506 7 4.30756 17.5 17.4551 18.25C17.5536 18.2561 17.6524 18.2427 17.7457 18.2105C17.839 18.1783 17.9251 18.1281 17.9989 18.0626C18.0728 17.9971 18.133 17.9176 18.1761 17.8288C18.2192 17.74 18.2443 17.6436 18.2501 17.545V13.54L15.4226 12.4075L13.2701 14.545L12.9101 14.5C6.38506 13.6825 5.50006 7.1575 5.50006 7.09L5.45506 6.73L7.58506 4.5775L6.46006 1.75H2.50006Z" fill="black"/>
</svg>
