<svg width="24" height="24" viewBox="0 0 24 24" fill="none" xmlns="http://www.w3.org/2000/svg">
<path d="M12 0.375C5.57775 0.375 0.375 5.5785 0.375 12C0.375 18.4215 5.5785 23.625 12 23.625C18.4222 23.625 23.625 18.4215 23.625 12C23.625 5.5785 18.4215 0.375 12 0.375ZM17.7098 8.33925L15.8018 17.3302C15.6608 17.9678 15.2812 18.1222 14.7518 17.8223L11.8455 15.6803L10.4438 17.0303C10.2893 17.1847 10.158 17.316 9.858 17.316L10.0642 14.358L15.45 9.492C15.6848 9.28575 15.3982 9.16875 15.0885 9.375L8.43225 13.5653L5.5635 12.6698C4.94025 12.4732 4.926 12.0465 5.69475 11.7465L16.9028 7.42425C17.4233 7.23675 17.8778 7.551 17.709 8.3385L17.7098 8.33925Z" fill="#043353"/>
</svg>
